<svg width="144" height="38" viewBox="0 0 144 38" fill="none" xmlns="http://www.w3.org/2000/svg">
<path fill-rule="evenodd" clip-rule="evenodd" d="M0 17.7778C0 11.2829 -2.38419e-07 8.03542 2.0177 6.0177C4.03542 4 7.28286 4 13.7778 4H17.2222C23.7171 4 26.9647 4 28.9822 6.0177C31 8.03542 31 11.2829 31 17.7778V21.2222C31 27.7171 31 30.9647 28.9822 32.9822C26.9647 35 23.7171 35 17.2222 35H13.7778C7.28286 35 4.03542 35 2.0177 32.9822C-2.38419e-07 30.9647 0 27.7171 0 21.2222V17.7778ZM25.8333 11.75C25.8333 13.1767 24.6767 14.3333 23.25 14.3333C21.8233 14.3333 20.6667 13.1767 20.6667 11.75C20.6667 10.3233 21.8233 9.16667 23.25 9.16667C24.6767 9.16667 25.8333 10.3233 25.8333 11.75ZM18.9444 21.2222C18.9444 23.1246 17.4024 24.6667 15.5 24.6667C13.5976 24.6667 12.0556 23.1246 12.0556 21.2222C12.0556 19.3199 13.5976 17.7778 15.5 17.7778C17.4024 17.7778 18.9444 19.3199 18.9444 21.2222ZM22.3889 21.2222C22.3889 25.0268 19.3046 28.1111 15.5 28.1111C11.6954 28.1111 8.61111 25.0268 8.61111 21.2222C8.61111 17.4177 11.6954 14.3333 15.5 14.3333C19.3046 14.3333 22.3889 17.4177 22.3889 21.2222Z" fill="#007AFF"/>
<path d="M42.3997 28V15.4029H46.3654V28H42.3997ZM44.3955 13.6662C43.7734 13.6662 43.255 13.4589 42.8403 13.0442C42.4429 12.6122 42.2442 12.0938 42.2442 11.489C42.2442 10.8669 42.4429 10.3485 42.8403 9.93376C43.255 9.51904 43.7734 9.31168 44.3955 9.31168C45.0176 9.31168 45.5274 9.51904 45.9248 9.93376C46.3222 10.3485 46.521 10.8669 46.521 11.489C46.521 12.0938 46.3222 12.6122 45.9248 13.0442C45.5274 13.4589 45.0176 13.6662 44.3955 13.6662ZM49.1581 28V15.4029H53.1239V28H49.1581ZM57.2192 28V20.6387C57.2192 19.9994 57.0205 19.5069 56.6231 19.1613C56.2429 18.7984 55.7677 18.617 55.1975 18.617C54.8 18.617 54.4458 18.7034 54.1348 18.8762C53.8237 19.0317 53.5732 19.2563 53.3831 19.5501C53.2103 19.8438 53.1239 20.2067 53.1239 20.6387L51.5946 19.9648C51.5946 18.9626 51.8106 18.1072 52.2426 17.3987C52.6746 16.673 53.2621 16.12 54.0052 15.7398C54.7482 15.3424 55.5863 15.1437 56.5194 15.1437C57.4007 15.1437 58.1869 15.3424 58.8781 15.7398C59.5866 16.1373 60.1482 16.6902 60.5629 17.3987C60.9776 18.1072 61.185 18.9539 61.185 19.9389V28H57.2192ZM65.2804 28V20.6387C65.2804 19.9994 65.0816 19.5069 64.6842 19.1613C64.304 18.7984 63.8288 18.617 63.2586 18.617C62.8612 18.617 62.5069 18.7034 62.1959 18.8762C61.8848 19.0317 61.6343 19.2563 61.4442 19.5501C61.2714 19.8438 61.185 20.2067 61.185 20.6387L58.904 20.3277C58.9386 19.2563 59.1892 18.3405 59.6557 17.5802C60.1396 16.8026 60.7703 16.2064 61.5479 15.7917C62.3428 15.3597 63.2327 15.1437 64.2176 15.1437C65.1853 15.1437 66.0407 15.351 66.7837 15.7658C67.544 16.1632 68.1402 16.7421 68.5722 17.5024C69.0215 18.2454 69.2461 19.144 69.2461 20.1981V28H65.2804ZM77.0493 28.2592C75.8915 28.2592 74.8547 27.9741 73.9389 27.4038C73.0403 26.8336 72.3232 26.056 71.7875 25.071C71.2691 24.0861 71.0099 22.9629 71.0099 21.7014C71.0099 20.44 71.2691 19.3168 71.7875 18.3318C72.3232 17.3469 73.0403 16.5693 73.9389 15.999C74.8547 15.4288 75.8915 15.1437 77.0493 15.1437C77.896 15.1437 78.6563 15.3078 79.3302 15.6362C80.0214 15.9645 80.583 16.4224 81.015 17.0099C81.447 17.5802 81.6889 18.2368 81.7408 18.9798V24.423C81.6889 25.1661 81.447 25.8314 81.015 26.4189C80.6003 26.9891 80.0473 27.4384 79.3561 27.7667C78.6649 28.095 77.896 28.2592 77.0493 28.2592ZM77.8528 24.6822C78.6995 24.6822 79.3821 24.4058 79.9005 23.8528C80.4189 23.2826 80.6781 22.5654 80.6781 21.7014C80.6781 21.1139 80.5571 20.5955 80.3152 20.1462C80.0905 19.697 79.7622 19.3514 79.3302 19.1094C78.9155 18.8502 78.4317 18.7206 77.8787 18.7206C77.3257 18.7206 76.8333 18.8502 76.4013 19.1094C75.9865 19.3514 75.6496 19.697 75.3904 20.1462C75.1485 20.5955 75.0275 21.1139 75.0275 21.7014C75.0275 22.2717 75.1485 22.7814 75.3904 23.2307C75.6323 23.68 75.9693 24.0342 76.4013 24.2934C76.8333 24.5526 77.3171 24.6822 77.8528 24.6822ZM80.5225 28V24.6045L81.1187 21.5459L80.5225 18.4874V15.4029H84.4105V28H80.5225ZM92.5423 33.6506C91.1599 33.6506 89.9417 33.4086 88.8876 32.9248C87.8508 32.4582 87.03 31.793 86.4252 30.929L88.8617 28.4925C89.311 29.0282 89.8121 29.4342 90.3651 29.7107C90.9353 29.9872 91.6179 30.1254 92.4127 30.1254C93.3977 30.1254 94.1667 29.8835 94.7196 29.3997C95.2899 28.9158 95.575 28.2333 95.575 27.352V24.1379L96.2489 21.3904L95.6527 18.6429V15.4029H99.5407V27.2483C99.5407 28.5443 99.2383 29.6675 98.6335 30.6179C98.0287 31.5683 97.1993 32.3114 96.1452 32.847C95.0911 33.3827 93.8902 33.6506 92.5423 33.6506ZM92.3609 27.6112C91.2031 27.6112 90.175 27.3347 89.2764 26.7818C88.3779 26.2288 87.6694 25.4771 87.151 24.5267C86.6326 23.5763 86.3734 22.5222 86.3734 21.3645C86.3734 20.1894 86.6326 19.1354 87.151 18.2022C87.6694 17.2518 88.3779 16.5088 89.2764 15.9731C90.175 15.4202 91.2031 15.1437 92.3609 15.1437C93.2249 15.1437 93.9939 15.3078 94.6678 15.6362C95.359 15.9472 95.9119 16.3965 96.3267 16.984C96.7587 17.5542 97.0006 18.2195 97.0524 18.9798V23.775C97.0006 24.5181 96.7587 25.1834 96.3267 25.7709C95.9119 26.3411 95.359 26.7904 94.6678 27.1187C93.9766 27.447 93.2076 27.6112 92.3609 27.6112ZM93.1126 24.0861C93.6655 24.0861 94.1407 23.9651 94.5382 23.7232C94.9529 23.4813 95.2639 23.1616 95.4713 22.7642C95.6959 22.3494 95.8083 21.8829 95.8083 21.3645C95.8083 20.8461 95.6959 20.3795 95.4713 19.9648C95.2639 19.5501 94.9529 19.2218 94.5382 18.9798C94.1407 18.7379 93.6655 18.617 93.1126 18.617C92.5769 18.617 92.1017 18.7379 91.687 18.9798C91.2723 19.2218 90.9526 19.5501 90.7279 19.9648C90.5033 20.3795 90.391 20.8461 90.391 21.3645C90.391 21.8483 90.5033 22.3062 90.7279 22.7382C90.9526 23.153 91.2636 23.4813 91.6611 23.7232C92.0758 23.9651 92.5596 24.0861 93.1126 24.0861ZM102.34 28V15.4029H106.305V28H102.34ZM104.336 13.6662C103.713 13.6662 103.195 13.4589 102.78 13.0442C102.383 12.6122 102.184 12.0938 102.184 11.489C102.184 10.8669 102.383 10.3485 102.78 9.93376C103.195 9.51904 103.713 9.31168 104.336 9.31168C104.958 9.31168 105.467 9.51904 105.865 9.93376C106.262 10.3485 106.461 10.8669 106.461 11.489C106.461 12.0938 106.262 12.6122 105.865 13.0442C105.467 13.4589 104.958 13.6662 104.336 13.6662ZM116.9 28L113.867 23.1011L113.012 22.5568L108.061 15.4029H112.701L115.526 19.9907L116.356 20.5091L121.488 28H116.9ZM107.828 28L112.986 20.6646L115.241 23.2048L112.157 28H107.828ZM116.33 22.5309L114.075 19.9907L116.926 15.4029H121.229L116.33 22.5309Z" fill="black"/>
</svg>
